<svg width="43" height="42" viewBox="0 0 43 42" fill="none" xmlns="http://www.w3.org/2000/svg">
<path d="M21.8065 7C18.0043 7 17.5271 7.01663 16.0338 7.08458C14.5433 7.15284 13.526 7.3888 12.6358 7.73501C11.715 8.09259 10.9339 8.57093 10.1557 9.3494C9.37698 10.1276 8.89865 10.9087 8.53989 11.8292C8.1928 12.7196 7.95655 13.7373 7.88947 15.2271C7.82268 16.7205 7.80518 17.1979 7.80518 21.0001C7.80518 24.8024 7.82209 25.2781 7.88976 26.7714C7.9583 28.2618 8.19426 29.2792 8.54018 30.1694C8.89806 31.0902 9.3764 31.8713 10.1549 32.6494C10.9327 33.4282 11.7138 33.9077 12.6341 34.2653C13.5248 34.6115 14.5425 34.8475 16.0326 34.9157C17.5259 34.9837 18.0028 35.0003 21.8047 35.0003C25.6072 35.0003 26.083 34.9837 27.5763 34.9157C29.0667 34.8475 30.0852 34.6115 30.976 34.2653C31.8965 33.9077 32.6764 33.4282 33.4543 32.6494C34.2331 31.8713 34.7114 31.0902 35.0702 30.1697C35.4143 29.2792 35.6506 28.2616 35.7206 26.7717C35.7877 25.2784 35.8052 24.8024 35.8052 21.0001C35.8052 17.1979 35.7877 16.7208 35.7206 15.2274C35.6506 13.737 35.4143 12.7196 35.0702 11.8295C34.7114 10.9087 34.2331 10.1276 33.4543 9.3494C32.6756 8.57064 31.8968 8.0923 30.9751 7.73501C30.0826 7.3888 29.0647 7.15284 27.5743 7.08458C26.0809 7.01663 25.6055 7 21.8021 7H21.8065ZM20.5506 9.52294C20.9233 9.52236 21.3392 9.52294 21.8065 9.52294C25.5445 9.52294 25.9876 9.53636 27.4637 9.60344C28.8287 9.66586 29.5696 9.89395 30.0631 10.0856C30.7164 10.3393 31.1822 10.6427 31.6719 11.1327C32.1619 11.6227 32.4653 12.0893 32.7196 12.7427C32.9112 13.2356 33.1396 13.9764 33.2017 15.3415C33.2688 16.8173 33.2834 17.2606 33.2834 20.9969C33.2834 24.7332 33.2688 25.1766 33.2017 26.6524C33.1393 28.0174 32.9112 28.7583 32.7196 29.2512C32.4658 29.9045 32.1619 30.3697 31.6719 30.8595C31.1819 31.3495 30.7167 31.6528 30.0631 31.9065C29.5702 32.0991 28.8287 32.3266 27.4637 32.389C25.9879 32.4561 25.5445 32.4706 21.8065 32.4706C18.0682 32.4706 17.6251 32.4561 16.1493 32.389C14.7842 32.326 14.0434 32.0979 13.5496 31.9063C12.8963 31.6525 12.4296 31.3492 11.9396 30.8592C11.4496 30.3692 11.1463 29.9037 10.8919 29.25C10.7003 28.7571 10.4719 28.0163 10.4098 26.6512C10.3427 25.1754 10.3293 24.7321 10.3293 20.9934C10.3293 17.2548 10.3427 16.8138 10.4098 15.338C10.4722 13.9729 10.7003 13.2321 10.8919 12.7386C11.1457 12.0853 11.4496 11.6186 11.9396 11.1286C12.4296 10.6386 12.8963 10.3352 13.5496 10.0809C14.0431 9.8884 14.7842 9.6609 16.1493 9.59819C17.4408 9.53986 17.9413 9.52236 20.5506 9.51944V9.52294ZM29.2796 11.8475C28.3521 11.8475 27.5996 12.5992 27.5996 13.527C27.5996 14.4545 28.3521 15.207 29.2796 15.207C30.2072 15.207 30.9597 14.4545 30.9597 13.527C30.9597 12.5995 30.2072 11.847 29.2796 11.847V11.8475ZM21.8065 13.8105C17.836 13.8105 14.6168 17.0296 14.6168 21.0001C14.6168 24.9706 17.836 28.1883 21.8065 28.1883C25.777 28.1883 28.995 24.9706 28.995 21.0001C28.995 17.0296 25.7767 13.8105 21.8062 13.8105H21.8065ZM21.8065 16.3334C24.3837 16.3334 26.4732 18.4227 26.4732 21.0001C26.4732 23.5773 24.3837 25.6669 21.8065 25.6669C19.229 25.6669 17.1398 23.5773 17.1398 21.0001C17.1398 18.4227 19.229 16.3334 21.8065 16.3334Z" fill="#D16868"/>
</svg>
