<svg width="43" height="42" viewBox="0 0 43 42" fill="none" xmlns="http://www.w3.org/2000/svg">
<path d="M7.28456 30.0394C10.4106 30.2154 13.1442 29.4846 15.8102 27.5494C13.1172 27.0893 11.2497 25.8578 10.2347 23.3137C11.0196 23.2054 11.7098 23.4084 12.5217 23.0836C9.86932 21.9198 8.15066 20.1741 8.083 17.1563C8.92203 17.2239 9.55807 17.7788 10.5595 17.6976C8.1236 15.3158 7.37929 12.7175 8.90849 9.56441C11.4526 12.4875 14.4299 14.4768 18.0702 15.4106C18.2732 15.4647 18.4626 15.5188 18.6656 15.5594C19.5993 15.7759 20.709 16.2361 21.2774 16.1684C22.2518 16.0466 21.2774 14.9234 21.521 13.4618C22.2924 8.91484 27.2995 6.84433 31.0075 9.51028C32.0901 10.2952 32.9426 10.2816 34.0117 9.808C34.5666 9.56441 35.1349 9.32082 35.798 9.03664C35.6492 10.3358 34.6478 11.053 33.8493 12.0138C34.756 12.2168 35.4868 11.9597 36.3258 11.6891C36.0416 12.6228 35.3379 13.1506 34.7019 13.6648C34.0388 14.1926 33.7817 14.7475 33.7546 15.6135C33.3486 28.7268 18.4491 38.8628 8.25893 30.7973C7.27104 30.0124 8.23185 30.7973 7.28456 30.0394Z" fill="white"/>
</svg>
