<svg width="43" height="42" viewBox="0 0 43 42" fill="none" xmlns="http://www.w3.org/2000/svg">
<path d="M7.28592 30.0386C10.4117 30.2145 13.145 29.4838 15.8107 27.5488C13.118 27.0887 11.2506 25.8574 10.2358 23.3135C11.0206 23.2052 11.7107 23.4082 12.5226 23.0834C9.87044 21.9197 8.15194 20.1742 8.08428 17.1566C8.92323 17.2243 9.55922 17.7791 10.5605 17.6979C8.12488 15.3164 7.38064 12.7183 8.9097 9.56548C11.4536 12.4883 14.4305 14.4774 18.0705 15.4111C18.2735 15.4652 18.4629 15.5193 18.6659 15.5599C19.5996 15.7764 20.7091 16.2365 21.2775 16.1688C22.2517 16.0471 21.2775 14.9239 21.521 13.4625C22.2923 8.91597 27.299 6.84565 31.0066 9.51135C32.0891 10.2962 32.9416 10.2826 34.0106 9.80905C34.5654 9.56548 35.1337 9.32191 35.7967 9.03775C35.6479 10.3368 34.6466 11.0539 33.8482 12.0147C34.7548 12.2176 35.4855 11.9606 36.3245 11.6899C36.0403 12.6236 35.3367 13.1513 34.7007 13.6655C34.0376 14.1932 33.7805 14.748 33.7535 15.6141C33.3475 28.7261 18.4494 38.8611 8.2602 30.7964C7.2724 30.0115 8.23312 30.7964 7.28592 30.0386Z" fill="#D16868"/>
</svg>
